<?xml version="1.0" encoding="utf-8"?>
<!-- Generator: Adobe Illustrator 15.1.0, SVG Export Plug-In . SVG Version: 6.00 Build 0)  -->
<!DOCTYPE svg PUBLIC "-//W3C//DTD SVG 1.1//EN" "http://www.w3.org/Graphics/SVG/1.1/DTD/svg11.dtd">
<svg version="1.1" id="Layer_1" xmlns="http://www.w3.org/2000/svg" xmlns:xlink="http://www.w3.org/1999/xlink" x="0px" y="0px"
	 width="2000px" height="2000px" viewBox="0 0 2000 2000" enable-background="new 0 0 2000 2000" xml:space="preserve">
<g>
	<defs>
		<rect id="SVGID_1_" y="250" width="2000" height="1500"/>
	</defs>
	<clipPath id="SVGID_2_">
		<use xlink:href="#SVGID_1_"  overflow="visible"/>
	</clipPath>
	<g clip-path="url(#SVGID_2_)">
		<path fill="#A4C2F4" d="M801.974,984.979h388.32l-388.32,113.058V984.979z"/>
		<path fill="#76A5AF" d="M1194.92,984.996H795.052l399.868-113.059V984.996z"/>
		<path fill="#9FC5E8" d="M1446.801,871.938v-95.932l-251.574,95.932H1446.801z"/>
		<path fill="#76A5AF" d="M1193.651,1308.552V871.938l85.564,436.614H1193.651z"/>
		<path fill="#A2C4C9" d="M806.627,1204.565v-179.658L561.68,1204.565H806.627z"/>
		<path fill="#A2C4C9" d="M806.627,980.173v122.703l-181.43-122.703H806.627z"/>
		<path fill="#A2C4C9" d="M799.737,984.996V871.938L618.307,984.996H799.737z"/>
		<path fill="#76A5AF" d="M1446.801,444.127v406.168L1305.2,444.127H1446.801z"/>
		<path fill="#76A5AF" d="M613.314,933.339v-385.63l181.431,385.63H613.314z"/>
		<path fill="#6D9EEB" d="M1446.801,861.406v457.678l-74.016-457.678H1446.801z"/>
		<path fill="#8E7CC3" d="M1191.716,444.127v406.168l244.947-406.168H1191.716z"/>
		<path fill="#76A5AF" d="M1347.457,846.479V594.903l-153.806,251.575H1347.457z"/>
		<path fill="#6D9EEB" d="M554.773,1555.878V1149.71l169.816,406.168H554.773z"/>
		<path fill="#A2C4C9" d="M554.79,444.095v457.677l85.564-457.677H554.79z"/>
		<path fill="#A2C4C9" d="M799.737,846.479h483.006L799.737,980.337V846.479z"/>
		<path fill="#6D9EEB" d="M1194.947,1098.054h-388.32l388.32-113.058V1098.054z"/>
		<path fill="#674EA7" d="M799.737,444.127v406.168L554.79,444.127H799.737z"/>
		<path fill="#76A5AF" d="M1445.507,1479.615V871.938l-121.391,607.678H1445.507z"/>
		<path fill="#674EA7" d="M1195.227,1555.878V1149.71l251.574,406.168H1195.227z"/>
		<path fill="#5B0F00" d="M1367.307,1382.514V824.377l-106.234,558.137H1367.307z"/>
		<path fill="#5B0F00" d="M554.773,1353.155V984.979l74.016,368.176H554.773z"/>
		<path fill="#8E7CC3" d="M806.365,1555.878v-530.971L554.79,1555.878H806.365z"/>
	</g>
</g>
</svg>
